<svg viewBox="0 0 34 34" xmlns="http://www.w3.org/2000/svg" xmlns:xlink="http://www.w3.org/1999/xlink" width="34.000000" height="34.000000" fill="none" customFrame="#000000">
	<rect id="material-symbols:radio-rounded" width="34.000000" height="34.000000" x="0.000000" y="0.000000" fill="rgb(255,255,255)" fill-opacity="0" />
	<path id="Vector" d="M5.66665 31.1667C4.88748 31.1667 4.2207 30.8895 3.66631 30.3351C3.11192 29.7807 2.83426 29.1134 2.83331 28.3333L2.83331 9.42084L21.3562 1.87709C21.6868 1.75903 22.0117 1.76517 22.3309 1.8955C22.6501 2.02584 22.8683 2.25581 22.9854 2.58542C23.1025 2.91503 23.0968 3.23992 22.9684 3.56009C22.84 3.88025 22.6095 4.09842 22.2771 4.21459L11.7583 8.5L28.3333 8.5C29.1125 8.5 29.7797 8.77767 30.3351 9.333C30.8904 9.88834 31.1676 10.5551 31.1666 11.3333L31.1666 28.3333C31.1666 29.1125 30.8895 29.7798 30.3351 30.3351C29.7807 30.8904 29.1134 31.1676 28.3333 31.1667L5.66665 31.1667ZM11.3333 26.9167C12.325 26.9167 13.1632 26.5743 13.8479 25.8896C14.5326 25.2049 14.875 24.3667 14.875 23.375C14.875 22.3833 14.5326 21.5451 13.8479 20.8604C13.1632 20.1757 12.325 19.8333 11.3333 19.8333C10.3416 19.8333 9.50345 20.1757 8.81873 20.8604C8.13401 21.5451 7.79165 22.3833 7.79165 23.375C7.79165 24.3667 8.13401 25.2049 8.81873 25.8896C9.50345 26.5743 10.3416 26.9167 11.3333 26.9167ZM5.66665 15.5833L22.6666 15.5833L22.6666 14.1667C22.6666 13.7653 22.8026 13.4291 23.0746 13.158C23.3466 12.8869 23.6829 12.7509 24.0833 12.75C24.4838 12.7491 24.8205 12.8851 25.0934 13.158C25.3663 13.4309 25.5019 13.7672 25.5 14.1667L25.5 15.5833L28.3333 15.5833L28.3333 11.3333L5.66665 11.3333L5.66665 15.5833Z" fill="rgb(232.933,232.933,232.933)" fill-rule="nonzero" />
</svg>
