<svg width="34" height="34" viewBox="0 0 34 34" fill="none" xmlns="http://www.w3.org/2000/svg">
<path d="M29.6905 21.7104C29.9795 21.0219 29.1536 20.4354 28.4608 20.7414C27.0759 21.3486 25.5799 21.6612 24.0677 21.6594C18.139 21.6594 13.3337 16.9504 13.3337 11.1407C13.3331 9.17929 13.8902 7.25819 14.9402 5.6015C15.3425 4.96683 14.8594 4.0885 14.1227 4.2755C8.44333 5.72475 4.25 10.7851 4.25 16.8045C4.25 23.9544 10.1646 29.75 17.4618 29.75C22.9868 29.75 27.7185 26.4279 29.6905 21.7104Z" fill="#E9E9E9"/>
<path d="M22.1156 4.39591C21.3648 3.89441 20.4694 4.78975 20.9695 5.54058L21.862 6.87933C22.2244 7.42201 22.4179 8.05993 22.4179 8.7125C22.4179 9.36506 22.2244 10.003 21.862 10.5457L20.9695 11.8844C20.4694 12.6352 21.3662 13.5306 22.117 13.0291L23.4543 12.1366C23.997 11.7742 24.6349 11.5807 25.2875 11.5807C25.9401 11.5807 26.578 11.7742 27.1207 12.1366L28.4594 13.0291C29.2103 13.5306 30.1056 12.6352 29.6041 11.8844L28.7116 10.5457C28.3492 10.003 28.1558 9.36506 28.1558 8.7125C28.1558 8.05993 28.3492 7.42201 28.7116 6.87933L29.6041 5.54058C30.1056 4.78975 29.2103 3.89441 28.458 4.39591L27.1207 5.28841C26.578 5.65083 25.9401 5.84425 25.2875 5.84425C24.6349 5.84425 23.997 5.65083 23.4543 5.28841L22.1156 4.39591Z" fill="#E9E9E9"/>
</svg>
