<svg viewBox="0 0 420 284" xmlns="http://www.w3.org/2000/svg" xmlns:xlink="http://www.w3.org/1999/xlink" width="420.000000" height="284.000000" fill="none">
	<defs>
		<g id="pixso_custom_effect_9">
			<effect x="4.000000" y="-4.000000" visibility="hidden" fill="rgb(0,0,0)" fill-opacity="0.400000006" effectType="dropShadow" stdDeviation="10" radius="0" />
			<effect x="0.000000" y="2.000000" visibility="visible" fill="rgb(255,255,255)" fill-opacity="0.25" effectType="innerShadow" stdDeviation="20" radius="0" />
			<effect x="0.000000" y="-2.000000" visibility="visible" fill="rgb(0,0,0)" fill-opacity="0.25" effectType="innerShadow" stdDeviation="10" radius="0" />
			<effect x="0.000000" y="-10.000000" visibility="visible" fill="rgb(0,0,0)" fill-opacity="0.200000003" effectType="innerShadow" stdDeviation="30" radius="6" />
			<effect x="2.000000" y="2.000000" visibility="hidden" fill="rgb(0,0,0)" fill-opacity="0.200000003" effectType="dropShadow" stdDeviation="10" radius="0" />
		</g>
		<filter id="filter_9" width="420.000000" height="284.000000" x="0.000000" y="0.000000" filterUnits="userSpaceOnUse" customEffect="url(#pixso_custom_effect_9)" color-interpolation-filters="sRGB">
			<feFlood flood-opacity="0" result="BackgroundImageFix" />
			<feBlend result="shape" in="SourceGraphic" in2="BackgroundImageFix" mode="normal" />
			<feColorMatrix result="hardAlpha" in="SourceAlpha" type="matrix" values="0 0 0 0 0 0 0 0 0 0 0 0 0 0 0 0 0 0 127 0 " />
			<feOffset dx="0.000000" dy="2.000000" in="hardAlpha" />
			<feGaussianBlur stdDeviation="6.66666651" />
			<feComposite k2="-1" k3="1" in2="hardAlpha" operator="arithmetic" />
			<feColorMatrix type="matrix" values="0 0 0 0 1 0 0 0 0 1 0 0 0 0 1 0 0 0 0.25 0 " />
			<feBlend result="effect_innerShadow_1" in2="shape" mode="normal" />
			<feColorMatrix result="hardAlpha" in="SourceAlpha" type="matrix" values="0 0 0 0 0 0 0 0 0 0 0 0 0 0 0 0 0 0 127 0 " />
			<feOffset dx="0.000000" dy="-2.000000" in="hardAlpha" />
			<feGaussianBlur stdDeviation="3.33333325" />
			<feComposite k2="-1" k3="1" in2="hardAlpha" operator="arithmetic" />
			<feColorMatrix type="matrix" values="0 0 0 0 0 0 0 0 0 0 0 0 0 0 0 0 0 0 0.25 0 " />
			<feBlend result="effect_innerShadow_2" in2="effect_innerShadow_1" mode="normal" />
			<feColorMatrix result="hardAlpha" in="SourceAlpha" type="matrix" values="0 0 0 0 0 0 0 0 0 0 0 0 0 0 0 0 0 0 127 0 " />
			<feOffset dx="-0.000000" dy="-0.000000" in="hardAlpha" />
			<feMorphology radius="6" operator="erode" />
			<feOffset dx="0.000000" dy="-10.000000" />
			<feGaussianBlur stdDeviation="10" />
			<feComposite k2="-1" k3="1" in2="hardAlpha" operator="arithmetic" />
			<feColorMatrix type="matrix" values="0 0 0 0 0 0 0 0 0 0 0 0 0 0 0 0 0 0 0.2 0 " />
			<feBlend result="effect_innerShadow_3" in2="effect_innerShadow_2" mode="normal" />
		</filter>
		<g id="pixso_custom_effect_10">
			<effect x="1.000000" y="2.000000" visibility="visible" fill="rgb(0,0,0)" fill-opacity="0.150000006" effectType="dropShadow" stdDeviation="4" radius="0" />
		</g>
		<filter id="filter_10" width="428.000000" height="292.307678" x="-3.000000" y="-2.000000" filterUnits="userSpaceOnUse" customEffect="url(#pixso_custom_effect_10)" color-interpolation-filters="sRGB">
			<feFlood flood-opacity="0" result="BackgroundImageFix" />
			<feOffset dx="1.000000" dy="2.000000" in="SourceAlpha" />
			<feGaussianBlur stdDeviation="1.33333337" />
			<feColorMatrix type="matrix" values="0 0 0 0 0 0 0 0 0 0 0 0 0 0 0 0 0 0 0.15 0 " />
			<feBlend result="effect_dropShadow_1" in2="BackgroundImageFix" mode="normal" />
			<feBlend result="shape" in="SourceGraphic" in2="effect_dropShadow_1" mode="normal" />
		</filter>
	</defs>
	<g filter="url(#filter_9)">
		<rect id="Frame 28" width="420.000000" height="284.000000" x="0.000000" y="0.000000" />
	</g>
	<rect id="Rectangle 5" width="420.000000" height="284.000000" x="0.000000" y="0.000000" opacity="0" fill="rgb(50.2644,49.0561,45.4313)" fill-opacity="0.349999994" />
	<g filter="url(#filter_10)">
		<path id="Exclude" d="M420 284.308L420 0L0 0L0 284.308L420 284.308ZM376.923 172.308L376.923 43.0769L43.0769 43.0769L43.0769 172.308L376.923 172.308Z" fill="rgb(127.5,126.002,120.757)" fill-rule="evenodd" />
	</g>
	<path id="Playlist" d="M162.084 220.642C161.255 221.526 160.594 221.968 160.102 221.968C159.555 221.968 159.067 221.617 158.639 220.915C158.219 220.222 158.01 219.489 158.01 218.714C158.01 217.939 158.192 217.265 158.557 216.69C158.93 216.107 159.423 215.592 160.033 215.146C160.644 214.699 161.341 214.312 162.125 213.983C162.918 213.655 163.738 213.386 164.586 213.177C166.263 212.748 167.671 212.534 168.811 212.534C169.959 212.534 170.921 212.584 171.695 212.685C172.47 212.776 173.217 212.931 173.938 213.149C174.658 213.368 175.337 213.651 175.975 213.997C176.613 214.334 177.173 214.744 177.656 215.228C178.677 216.276 179.188 217.584 179.188 219.151C179.188 220.774 178.677 222.437 177.656 224.142C176.672 225.791 175.396 227.159 173.828 228.243C172.16 229.382 170.479 229.952 168.783 229.952C167.954 229.952 167.225 229.747 166.596 229.337C166.295 229.127 166.14 228.886 166.131 228.612C166.122 228.33 166.126 228.075 166.145 227.847C166.217 226.908 166.423 225.805 166.76 224.538C167.425 224.812 168.136 224.948 168.893 224.948C169.649 224.948 170.278 224.871 170.779 224.716C171.281 224.552 171.782 224.324 172.283 224.032C172.794 223.741 173.281 223.394 173.746 222.993C174.22 222.592 174.639 222.146 175.004 221.653C175.797 220.578 176.193 219.557 176.193 218.591C176.193 217.625 175.97 216.864 175.523 216.308C175.086 215.743 174.521 215.291 173.828 214.954C172.525 214.307 170.916 213.983 169.002 213.983C167.352 213.983 165.666 214.316 163.943 214.981C162.74 215.455 161.874 216.057 161.346 216.786C161.072 217.169 160.936 217.588 160.936 218.044C160.936 219.074 161.318 219.94 162.084 220.642ZM156.971 233.466C157.436 232.974 157.982 232.121 158.611 230.909C159.24 229.688 159.778 228.631 160.225 227.737C160.671 226.844 161.136 225.928 161.619 224.989C162.111 224.05 162.613 223.121 163.123 222.2C163.643 221.271 164.167 220.396 164.695 219.575C165.871 217.771 166.947 216.504 167.922 215.774C168.031 215.683 168.15 215.638 168.277 215.638C168.414 215.638 168.551 215.66 168.688 215.706C168.988 215.806 169.253 215.961 169.48 216.171C168.341 217.082 167.165 219.475 165.953 223.349C165.607 224.433 165.27 225.518 164.941 226.603C164.613 227.678 164.294 228.717 163.984 229.72C163.684 230.722 163.383 231.606 163.082 232.372C162.435 234.058 161.856 234.901 161.346 234.901C159.732 234.901 158.47 234.573 157.559 233.917C157.331 233.753 157.135 233.603 156.971 233.466ZM188.539 215.364C189.551 215.364 190.057 216.216 190.057 217.921C190.057 220.172 188.689 222.551 185.955 225.058C184.916 226.015 183.822 226.84 182.674 227.532C182.792 228.936 183.307 229.738 184.219 229.938C184.51 230.002 184.852 230.034 185.244 230.034C185.645 230.034 186.074 229.984 186.529 229.884C186.994 229.774 187.454 229.601 187.91 229.364C188.922 228.845 189.765 228.07 190.439 227.04C190.85 227.013 191.055 227.181 191.055 227.546C191.055 227.692 190.954 227.997 190.754 228.462C190.562 228.927 190.202 229.533 189.674 230.28C189.145 231.019 188.512 231.688 187.773 232.29C186.078 233.675 184.196 234.368 182.127 234.368C179.739 234.368 178.294 233.347 177.793 231.306C177.629 230.668 177.547 229.957 177.547 229.173C177.547 228.38 177.665 227.582 177.902 226.78C178.139 225.978 178.458 225.185 178.859 224.401C179.26 223.608 179.725 222.834 180.254 222.077C180.792 221.321 181.357 220.61 181.949 219.944C182.551 219.279 183.161 218.668 183.781 218.112C184.401 217.547 185.003 217.06 185.586 216.649C186.835 215.793 187.819 215.364 188.539 215.364ZM182.674 225.878C184.205 224.921 185.495 223.772 186.543 222.433C187.609 221.075 188.143 219.876 188.143 218.837C188.143 218.317 188.033 217.944 187.814 217.716C187.742 217.634 187.614 217.593 187.432 217.593C187.249 217.593 186.994 217.711 186.666 217.948C186.338 218.176 186.001 218.491 185.654 218.892C185.308 219.293 184.966 219.767 184.629 220.313C184.301 220.851 184 221.425 183.727 222.036C183.125 223.412 182.774 224.693 182.674 225.878ZM196.77 232.181C195.521 233.639 193.999 234.368 192.203 234.368C191.064 234.368 190.152 234.026 189.469 233.343C188.794 232.668 188.457 231.78 188.457 230.677C188.457 229.282 189.004 227.929 190.098 226.616C191.155 225.34 192.54 224.301 194.254 223.499C196.031 222.67 197.868 222.255 199.764 222.255C200.484 222.255 200.999 222.369 201.309 222.597C201.555 222.305 201.773 222.136 201.965 222.091C202.165 222.036 202.32 222.009 202.43 222.009C202.776 222.009 203.145 222.059 203.537 222.159C203.501 222.278 203.423 222.483 203.305 222.774C203.186 223.057 203.054 223.394 202.908 223.786C202.762 224.178 202.607 224.606 202.443 225.071C201.851 226.73 201.555 227.974 201.555 228.804C201.555 229.624 201.814 230.034 202.334 230.034C203.008 230.034 203.76 229.729 204.59 229.118C205.328 228.562 205.975 227.869 206.531 227.04C206.941 227.013 207.146 227.181 207.146 227.546C207.146 227.856 206.955 228.33 206.572 228.968C206.199 229.606 205.834 230.157 205.479 230.622C205.123 231.087 204.727 231.543 204.289 231.989C203.852 232.436 203.387 232.837 202.895 233.192C201.792 233.976 200.716 234.368 199.668 234.368C198.337 234.368 197.444 233.967 196.988 233.165C196.842 232.919 196.77 232.705 196.77 232.522C196.77 232.331 196.77 232.217 196.77 232.181ZM192.859 228.448C192.859 229.506 193.301 230.034 194.186 230.034C195.161 230.034 196.309 229.246 197.631 227.669C198.333 226.83 198.943 226.028 199.463 225.263C199.992 224.497 200.393 223.914 200.666 223.513C198.387 223.531 196.496 224.05 194.992 225.071C193.57 226.037 192.859 227.163 192.859 228.448ZM213.039 231.757C211.435 233.261 209.922 234.013 208.5 234.013C207.57 234.013 206.791 233.73 206.162 233.165C205.488 232.563 205.15 231.711 205.15 230.608C205.15 229.341 205.592 228.011 206.477 226.616C207.224 225.44 208.135 224.406 209.211 223.513C210.214 222.683 210.965 222.269 211.467 222.269C211.786 222.269 212.046 222.405 212.246 222.679C211.635 223.144 211.098 223.75 210.633 224.497C209.758 225.919 209.32 226.99 209.32 227.71C209.32 229.214 209.73 229.966 210.551 229.966C211.398 229.966 212.406 229.373 213.572 228.188C214.766 226.976 215.596 225.627 216.061 224.142C216.133 223.649 216.193 223.089 216.238 222.46C217.004 222.177 217.546 222.228 217.865 222.61C217.984 222.756 218.043 222.998 218.043 223.335C218.043 223.663 218.002 224.091 217.92 224.62C217.847 225.149 217.724 225.746 217.551 226.411C217.204 227.824 216.712 229.3 216.074 230.841C217.378 230.485 218.686 229.638 219.998 228.298C220.399 227.888 220.741 227.468 221.023 227.04C221.434 227.013 221.639 227.181 221.639 227.546C221.639 227.692 221.529 228.029 221.311 228.558C221.092 229.077 220.732 229.683 220.23 230.376C219.738 231.06 219.191 231.661 218.59 232.181C217.359 233.238 215.997 233.912 214.502 234.204C212.743 237.431 210.906 239.554 208.992 240.575C208.299 240.949 207.639 241.136 207.01 241.136C206.381 241.136 205.798 241.045 205.26 240.862C204.722 240.68 204.239 240.429 203.811 240.11C202.844 239.372 202.361 238.493 202.361 237.472C202.361 237.08 202.493 236.674 202.758 236.255C203.25 235.471 203.779 234.97 204.344 234.751C205.401 235.462 206.303 235.904 207.051 236.077C207.379 236.15 207.725 236.187 208.09 236.187C208.454 236.187 208.837 236.077 209.238 235.858C209.648 235.64 210.068 235.334 210.496 234.942C211.389 234.113 212.237 233.051 213.039 231.757ZM230.211 215.364C231.223 215.364 231.729 216.216 231.729 217.921C231.729 220.172 230.361 222.551 227.627 225.058C226.588 226.015 225.494 226.84 224.346 227.532C224.464 228.936 224.979 229.738 225.891 229.938C226.182 230.002 226.524 230.034 226.916 230.034C227.317 230.034 227.745 229.984 228.201 229.884C228.666 229.774 229.126 229.601 229.582 229.364C230.594 228.845 231.437 228.07 232.111 227.04C232.521 227.013 232.727 227.181 232.727 227.546C232.727 227.692 232.626 227.997 232.426 228.462C232.234 228.927 231.874 229.533 231.346 230.28C230.817 231.019 230.184 231.688 229.445 232.29C227.75 233.675 225.868 234.368 223.799 234.368C221.411 234.368 219.966 233.347 219.465 231.306C219.301 230.668 219.219 229.957 219.219 229.173C219.219 228.38 219.337 227.582 219.574 226.78C219.811 225.978 220.13 225.185 220.531 224.401C220.932 223.608 221.397 222.834 221.926 222.077C222.464 221.321 223.029 220.61 223.621 219.944C224.223 219.279 224.833 218.668 225.453 218.112C226.073 217.547 226.674 217.06 227.258 216.649C228.507 215.793 229.491 215.364 230.211 215.364ZM224.346 225.878C225.877 224.921 227.167 223.772 228.215 222.433C229.281 221.075 229.814 219.876 229.814 218.837C229.814 218.317 229.705 217.944 229.486 217.716C229.413 217.634 229.286 217.593 229.104 217.593C228.921 217.593 228.666 217.711 228.338 217.948C228.01 218.176 227.673 218.491 227.326 218.892C226.98 219.293 226.638 219.767 226.301 220.313C225.973 220.851 225.672 221.425 225.398 222.036C224.797 223.412 224.446 224.693 224.346 225.878ZM241.094 219.288C240.72 219.47 240.314 219.612 239.877 219.712C239.449 219.803 239.075 219.849 238.756 219.849C238.437 219.849 238.15 219.812 237.895 219.739C237.639 219.657 237.411 219.543 237.211 219.397C236.773 219.078 236.555 218.696 236.555 218.249C236.555 217.802 236.632 217.424 236.787 217.114C236.951 216.804 237.184 216.54 237.484 216.321C238.132 215.847 238.906 215.61 239.809 215.61C240.72 215.61 241.381 215.797 241.791 216.171C242.21 216.545 242.42 216.973 242.42 217.456C242.42 217.939 242.292 218.317 242.037 218.591C241.782 218.864 241.467 219.097 241.094 219.288ZM230.566 232.782C230.375 232.372 230.279 231.871 230.279 231.278C230.279 230.677 230.407 230.043 230.662 229.378C230.926 228.713 231.259 228.052 231.66 227.396C232.07 226.73 232.526 226.092 233.027 225.481C233.529 224.862 234.025 224.315 234.518 223.841C235.602 222.811 236.4 222.296 236.91 222.296C237.129 222.296 237.37 222.392 237.635 222.583C237.908 222.765 238.081 222.902 238.154 222.993C236.778 224.47 235.908 225.896 235.543 227.272C235.424 227.692 235.365 228.102 235.365 228.503C235.365 228.895 235.516 229.25 235.816 229.569C236.117 229.879 236.491 230.034 236.938 230.034C237.384 230.034 237.799 229.952 238.182 229.788C238.574 229.615 238.956 229.392 239.33 229.118C240.068 228.562 240.715 227.869 241.271 227.04C241.682 227.013 241.887 227.181 241.887 227.546C241.887 227.847 241.695 228.321 241.312 228.968C240.939 229.615 240.565 230.175 240.191 230.649C239.818 231.114 239.389 231.575 238.906 232.03C238.432 232.486 237.913 232.892 237.348 233.247C236.081 234.049 234.777 234.45 233.438 234.45C232.025 234.45 231.068 233.894 230.566 232.782ZM251.115 223.075C250.614 223.039 250.126 223.048 249.652 223.103C249.652 223.194 249.652 223.353 249.652 223.581C249.652 223.809 249.684 224.151 249.748 224.606C249.812 225.062 249.889 225.563 249.98 226.11C250.236 227.66 250.363 228.708 250.363 229.255C250.363 229.802 250.327 230.248 250.254 230.595C251.63 230.248 252.893 229.455 254.041 228.216C254.387 227.842 254.697 227.45 254.971 227.04C255.235 227.022 255.404 227.072 255.477 227.19C255.549 227.3 255.586 227.418 255.586 227.546C255.586 227.674 255.481 227.983 255.271 228.476C255.062 228.968 254.661 229.588 254.068 230.335C253.485 231.082 252.756 231.757 251.881 232.358C249.903 233.716 247.524 234.405 244.744 234.423C244.489 234.441 244.12 234.45 243.637 234.45C243.154 234.45 242.62 234.318 242.037 234.054C241.454 233.78 240.957 233.411 240.547 232.946C239.699 231.989 239.275 230.763 239.275 229.269C239.275 228.649 239.745 227.951 240.684 227.177C240.948 226.958 241.212 226.767 241.477 226.603C242.388 225.235 243.682 224.05 245.359 223.048C247.046 222.045 248.622 221.544 250.09 221.544C250.618 221.544 250.983 221.69 251.184 221.981C251.402 222.291 251.38 222.656 251.115 223.075ZM244.238 229.433C244.439 229.588 244.662 229.665 244.908 229.665C245.154 229.665 245.396 229.569 245.633 229.378C245.87 229.187 246.084 228.931 246.275 228.612C246.476 228.293 246.649 227.924 246.795 227.505C246.95 227.086 247.087 226.648 247.205 226.192C247.406 225.427 247.606 224.52 247.807 223.472C246.266 223.946 244.904 224.698 243.719 225.728C243.363 226.047 243.053 226.37 242.789 226.698C243.108 228.011 243.591 228.922 244.238 229.433ZM257.91 234.382C255.003 234.382 253.549 233.147 253.549 230.677C253.549 228.954 254.693 226.566 256.98 223.513C256.753 223.44 256.543 223.376 256.352 223.321C256.16 223.267 256.005 223.221 255.887 223.185C255.768 223.139 255.695 223.071 255.668 222.979C255.641 222.888 255.632 222.784 255.641 222.665C255.677 222.392 255.741 222.173 255.832 222.009L257.896 222.351C259.51 220.391 260.9 219.047 262.066 218.317C262.422 218.099 262.673 217.989 262.818 217.989C262.964 217.989 263.092 218.012 263.201 218.058C263.32 218.094 263.438 218.144 263.557 218.208C263.812 218.345 264.012 218.504 264.158 218.687C262.928 219.89 261.775 221.271 260.699 222.829C262.786 223.194 264.062 223.39 264.527 223.417C264.281 224.392 263.999 224.88 263.68 224.88C262.896 224.88 261.606 224.666 259.811 224.237C258.908 225.741 258.457 226.99 258.457 227.983C258.457 229.351 259.378 230.034 261.219 230.034C263.279 230.034 264.974 229.036 266.305 227.04C266.715 227.013 266.92 227.181 266.92 227.546C266.92 227.865 266.729 228.343 266.346 228.981C265.963 229.61 265.58 230.157 265.197 230.622C264.814 231.087 264.372 231.547 263.871 232.003C263.37 232.45 262.814 232.851 262.203 233.206C260.872 233.99 259.441 234.382 257.91 234.382Z" opacity="0" fill="rgb(255,255,255)" fill-rule="nonzero" />
</svg>
