<svg width="53" height="34" viewBox="0 0 53 34" fill="none" xmlns="http://www.w3.org/2000/svg">
<path d="M1.78027 0.00822449C2.42349 -0.0627946 3.20874 0.382197 4.77832 1.2719L22.4814 11.3061V4.02971C22.4814 2.2365 22.4819 1.33925 22.8652 0.820724C23.1999 0.368501 23.715 0.0764194 24.2812 0.0179901C24.9303 -0.0487575 25.7218 0.399649 27.3037 1.29631L50.1875 14.268C51.7696 15.1648 52.5607 15.6132 52.8262 16.1987C53.0576 16.7092 53.0577 17.2926 52.8262 17.8031C52.5605 18.3884 51.7694 18.8372 50.1875 19.7338L27.3037 32.7045C25.7218 33.6012 24.9304 34.0496 24.2812 33.9828C23.715 33.9244 23.1999 33.6333 22.8652 33.1811C22.4816 32.6627 22.4814 31.7656 22.4814 29.9721V22.6947L4.77832 32.7299C3.20875 33.6196 2.42349 34.0646 1.78027 33.9936C1.21909 33.9314 0.70969 33.6347 0.378906 33.1772C3.02279e-05 32.6527 2.53828e-09 31.7505 0 29.9467V4.0551C1.49551e-09 2.25079 -0.00024703 1.34813 0.378906 0.823654C0.709694 0.3662 1.21917 0.0703456 1.78027 0.00822449Z" fill="#E9E9E9"/>
</svg>
