<svg viewBox="0 0 34 34" xmlns="http://www.w3.org/2000/svg" xmlns:xlink="http://www.w3.org/1999/xlink" width="34.000000" height="34.000000" fill="none" customFrame="#000000">
	<rect id="streamline-sharp:gameboy-solid" width="34.000000" height="34.000000" x="0.000000" y="0.000000" fill="rgb(255,255,255)" fill-opacity="0" />
	<path id="Vector" d="M29.3959 1.77083L4.60419 1.77083L4.60419 32.2292L29.3959 32.2292L29.3959 1.77083ZM25.1459 6.02083L8.85419 6.02083L8.85419 18.0625L25.1459 18.0625L25.1459 6.02083ZM11.5104 21.6042L11.5104 23.9062L9.20835 23.9062L9.20835 26.3854L11.5104 26.3854L11.5104 28.6875L13.9896 28.6875L13.9896 26.3854L16.2917 26.3854L16.2917 23.9062L13.9896 23.9062L13.9896 21.6042L11.5104 21.6042ZM25.5 21.25L22.6667 21.25L22.6667 24.0833L25.5 24.0833L25.5 21.25ZM22.6667 26.2083L19.8334 26.2083L19.8334 29.0417L22.6667 29.0417L22.6667 26.2083Z" fill="rgb(232.933,232.933,232.933)" fill-rule="evenodd" />
</svg>
