<svg viewBox="0 0 108 35" xmlns="http://www.w3.org/2000/svg" xmlns:xlink="http://www.w3.org/1999/xlink" width="108.000000" height="35.000000" fill="none" customFrame="#000000">
	<path id="Playlist" d="M6.08398 11.6416C5.25456 12.5257 4.59375 12.9678 4.10156 12.9678C3.55469 12.9678 3.06706 12.6169 2.63867 11.915C2.2194 11.2223 2.00977 10.4886 2.00977 9.71387C2.00977 8.93913 2.19206 8.26465 2.55664 7.69043C2.93034 7.1071 3.42253 6.59212 4.0332 6.14551C4.64388 5.69889 5.34115 5.31152 6.125 4.9834C6.91797 4.65527 7.73828 4.38639 8.58594 4.17676C10.263 3.74837 11.6712 3.53418 12.8105 3.53418C13.959 3.53418 14.9206 3.58431 15.6953 3.68457C16.4701 3.77571 17.2174 3.93066 17.9375 4.14941C18.6576 4.36816 19.3366 4.65071 19.9746 4.99707C20.6126 5.33431 21.1732 5.74446 21.6562 6.22754C22.6771 7.27571 23.1875 8.58366 23.1875 10.1514C23.1875 11.7738 22.6771 13.4372 21.6562 15.1416C20.6719 16.7913 19.3958 18.1585 17.8281 19.2432C16.1602 20.3825 14.4785 20.9521 12.7832 20.9521C11.9538 20.9521 11.2246 20.7471 10.5957 20.3369C10.2949 20.1273 10.14 19.8857 10.1309 19.6123C10.1217 19.3298 10.1263 19.0745 10.1445 18.8467C10.2174 17.9079 10.4225 16.805 10.7598 15.5381C11.4251 15.8115 12.1361 15.9482 12.8926 15.9482C13.6491 15.9482 14.278 15.8708 14.7793 15.7158C15.2806 15.5518 15.7819 15.3239 16.2832 15.0322C16.7936 14.7406 17.2812 14.3942 17.7461 13.9932C18.2201 13.5921 18.6393 13.1455 19.0039 12.6533C19.7969 11.5778 20.1934 10.557 20.1934 9.59082C20.1934 8.62468 19.9701 7.86361 19.5234 7.30762C19.0859 6.74251 18.5208 6.29134 17.8281 5.9541C16.5247 5.30696 14.916 4.9834 13.002 4.9834C11.3522 4.9834 9.66602 5.31608 7.94336 5.98145C6.74023 6.4554 5.87435 7.05696 5.3457 7.78613C5.07227 8.16895 4.93555 8.58821 4.93555 9.04395C4.93555 10.0739 5.31836 10.9398 6.08398 11.6416ZM0.970703 24.4658C1.43555 23.9736 1.98242 23.1214 2.61133 21.9092C3.24023 20.6878 3.77799 19.6305 4.22461 18.7373C4.67122 17.8441 5.13607 16.9281 5.61914 15.9893C6.11133 15.0505 6.61263 14.1208 7.12305 13.2002C7.64258 12.2705 8.16667 11.3955 8.69531 10.5752C9.87109 8.77051 10.9466 7.50358 11.9219 6.77441C12.0312 6.68327 12.1497 6.6377 12.2773 6.6377C12.4141 6.6377 12.5508 6.66048 12.6875 6.70605C12.9883 6.80632 13.2526 6.96126 13.4805 7.1709C12.3411 8.08236 11.1654 10.4749 9.95312 14.3486C9.60677 15.4333 9.26953 16.5179 8.94141 17.6025C8.61328 18.6781 8.29427 19.7171 7.98438 20.7197C7.68359 21.7223 7.38281 22.6064 7.08203 23.3721C6.4349 25.0583 5.85612 25.9014 5.3457 25.9014C3.73242 25.9014 2.47005 25.5732 1.55859 24.917C1.33073 24.7529 1.13477 24.6025 0.970703 24.4658ZM32.5391 6.36426C33.5508 6.36426 34.0566 7.21647 34.0566 8.9209C34.0566 11.1722 32.6895 13.5511 29.9551 16.0576C28.916 17.0146 27.8223 17.8395 26.6738 18.5322C26.7923 19.9359 27.3073 20.738 28.2188 20.9385C28.5104 21.0023 28.8522 21.0342 29.2441 21.0342C29.6452 21.0342 30.0736 20.9841 30.5293 20.8838C30.9941 20.7744 31.4544 20.6012 31.9102 20.3643C32.9219 19.8447 33.765 19.07 34.4395 18.04C34.8496 18.0127 35.0547 18.1813 35.0547 18.5459C35.0547 18.6917 34.9544 18.9971 34.7539 19.4619C34.5625 19.9268 34.2025 20.5329 33.6738 21.2803C33.1452 22.0186 32.5117 22.6885 31.7734 23.29C30.0781 24.6755 28.196 25.3682 26.127 25.3682C23.7389 25.3682 22.2943 24.3473 21.793 22.3057C21.6289 21.6676 21.5469 20.9567 21.5469 20.1729C21.5469 19.3799 21.6654 18.5824 21.9023 17.7803C22.1393 16.9782 22.4583 16.1852 22.8594 15.4014C23.2604 14.6084 23.7253 13.8337 24.2539 13.0771C24.7917 12.3206 25.3568 11.6097 25.9492 10.9443C26.5508 10.279 27.1615 9.66829 27.7812 9.1123C28.401 8.5472 29.0026 8.05957 29.5859 7.64941C30.8346 6.79264 31.819 6.36426 32.5391 6.36426ZM26.6738 16.8779C28.2051 15.9209 29.4948 14.7725 30.543 13.4326C31.6094 12.0745 32.1426 10.876 32.1426 9.83691C32.1426 9.31738 32.0332 8.94368 31.8145 8.71582C31.7415 8.63379 31.6139 8.59277 31.4316 8.59277C31.2493 8.59277 30.9941 8.71126 30.666 8.94824C30.3379 9.17611 30.0007 9.49056 29.6543 9.8916C29.3079 10.2926 28.9661 10.7666 28.6289 11.3135C28.3008 11.8512 28 12.4255 27.7266 13.0361C27.125 14.4124 26.7741 15.693 26.6738 16.8779ZM40.7695 23.1807C39.5208 24.639 37.9987 25.3682 36.2031 25.3682C35.0638 25.3682 34.1523 25.0264 33.4688 24.3428C32.7943 23.6683 32.457 22.7796 32.457 21.6768C32.457 20.2822 33.0039 18.9287 34.0977 17.6162C35.1549 16.3402 36.5404 15.3011 38.2539 14.499C40.0312 13.6696 41.8678 13.2549 43.7637 13.2549C44.4837 13.2549 44.9987 13.3688 45.3086 13.5967C45.5547 13.305 45.7734 13.1364 45.9648 13.0908C46.1654 13.0361 46.3203 13.0088 46.4297 13.0088C46.776 13.0088 47.1452 13.0589 47.5371 13.1592C47.5007 13.2777 47.4232 13.4827 47.3047 13.7744C47.1862 14.057 47.054 14.3942 46.9082 14.7861C46.7624 15.1781 46.6074 15.6064 46.4434 16.0713C45.8509 17.7301 45.5547 18.9743 45.5547 19.8037C45.5547 20.624 45.8145 21.0342 46.334 21.0342C47.0085 21.0342 47.7604 20.7288 48.5898 20.1182C49.3281 19.5622 49.9753 18.8695 50.5312 18.04C50.9414 18.0127 51.1465 18.1813 51.1465 18.5459C51.1465 18.8558 50.9551 19.3298 50.5723 19.9678C50.1986 20.6058 49.834 21.1572 49.4785 21.6221C49.123 22.0869 48.7266 22.5426 48.2891 22.9893C47.8516 23.4359 47.3867 23.8369 46.8945 24.1924C45.7917 24.9762 44.7161 25.3682 43.668 25.3682C42.3372 25.3682 41.444 24.9671 40.9883 24.165C40.8424 23.9189 40.7695 23.7048 40.7695 23.5225C40.7695 23.3311 40.7695 23.2171 40.7695 23.1807ZM36.8594 19.4482C36.8594 20.5055 37.3014 21.0342 38.1855 21.0342C39.1608 21.0342 40.3092 20.2458 41.6309 18.6689C42.3327 17.8304 42.9434 17.0283 43.4629 16.2627C43.9915 15.4971 44.3926 14.9137 44.666 14.5127C42.3874 14.5309 40.4961 15.0505 38.9922 16.0713C37.5703 17.0374 36.8594 18.1631 36.8594 19.4482ZM57.0391 22.7568C55.4349 24.2607 53.9219 25.0127 52.5 25.0127C51.5703 25.0127 50.791 24.7301 50.1621 24.165C49.4876 23.5635 49.1504 22.7113 49.1504 21.6084C49.1504 20.3415 49.5924 19.0107 50.4766 17.6162C51.224 16.4404 52.1354 15.4059 53.2109 14.5127C54.2135 13.6833 54.9655 13.2686 55.4668 13.2686C55.7858 13.2686 56.0456 13.4053 56.2461 13.6787C55.6354 14.1436 55.0977 14.7497 54.6328 15.4971C53.7578 16.9189 53.3203 17.9899 53.3203 18.71C53.3203 20.2139 53.7305 20.9658 54.5508 20.9658C55.3984 20.9658 56.4056 20.3734 57.5723 19.1885C58.7663 17.9762 59.5957 16.6273 60.0605 15.1416C60.1335 14.6494 60.1927 14.0889 60.2383 13.46C61.0039 13.1774 61.5462 13.2275 61.8652 13.6104C61.9837 13.7562 62.043 13.9977 62.043 14.335C62.043 14.6631 62.002 15.0915 61.9199 15.6201C61.847 16.1488 61.724 16.7458 61.5508 17.4111C61.2044 18.8239 60.7122 20.3005 60.0742 21.8408C61.3776 21.4854 62.6855 20.6377 63.998 19.2979C64.3991 18.8877 64.7409 18.4684 65.0234 18.04C65.4336 18.0127 65.6387 18.1813 65.6387 18.5459C65.6387 18.6917 65.5293 19.029 65.3105 19.5576C65.0918 20.0771 64.7318 20.6833 64.2305 21.376C63.7383 22.0596 63.1914 22.6611 62.5898 23.1807C61.3594 24.238 59.9967 24.9124 58.502 25.2041C56.7428 28.4307 54.9062 30.5544 52.9922 31.5752C52.2995 31.9489 51.6387 32.1357 51.0098 32.1357C50.3809 32.1357 49.7975 32.0446 49.2598 31.8623C48.722 31.68 48.2389 31.4294 47.8105 31.1104C46.8444 30.3721 46.3613 29.4925 46.3613 28.4717C46.3613 28.0798 46.4935 27.6742 46.7578 27.2549C47.25 26.471 47.7786 25.9697 48.3438 25.751C49.401 26.4619 50.3034 26.904 51.0508 27.0771C51.3789 27.1501 51.7253 27.1865 52.0898 27.1865C52.4544 27.1865 52.8372 27.0771 53.2383 26.8584C53.6484 26.6396 54.0677 26.3343 54.4961 25.9424C55.3893 25.113 56.237 24.0511 57.0391 22.7568ZM74.2109 6.36426C75.2227 6.36426 75.7285 7.21647 75.7285 8.9209C75.7285 11.1722 74.3613 13.5511 71.627 16.0576C70.5879 17.0146 69.4941 17.8395 68.3457 18.5322C68.4642 19.9359 68.9792 20.738 69.8906 20.9385C70.1823 21.0023 70.5241 21.0342 70.916 21.0342C71.3171 21.0342 71.7454 20.9841 72.2012 20.8838C72.666 20.7744 73.1263 20.6012 73.582 20.3643C74.5938 19.8447 75.4369 19.07 76.1113 18.04C76.5215 18.0127 76.7266 18.1813 76.7266 18.5459C76.7266 18.6917 76.6263 18.9971 76.4258 19.4619C76.2344 19.9268 75.8744 20.5329 75.3457 21.2803C74.8171 22.0186 74.1836 22.6885 73.4453 23.29C71.75 24.6755 69.8678 25.3682 67.7988 25.3682C65.4108 25.3682 63.9661 24.3473 63.4648 22.3057C63.3008 21.6676 63.2188 20.9567 63.2188 20.1729C63.2188 19.3799 63.3372 18.5824 63.5742 17.7803C63.8112 16.9782 64.1302 16.1852 64.5312 15.4014C64.9323 14.6084 65.3971 13.8337 65.9258 13.0771C66.4635 12.3206 67.0286 11.6097 67.6211 10.9443C68.2227 10.279 68.8333 9.66829 69.4531 9.1123C70.0729 8.5472 70.6745 8.05957 71.2578 7.64941C72.5065 6.79264 73.4909 6.36426 74.2109 6.36426ZM68.3457 16.8779C69.877 15.9209 71.1667 14.7725 72.2148 13.4326C73.2812 12.0745 73.8145 10.876 73.8145 9.83691C73.8145 9.31738 73.7051 8.94368 73.4863 8.71582C73.4134 8.63379 73.2858 8.59277 73.1035 8.59277C72.9212 8.59277 72.666 8.71126 72.3379 8.94824C72.0098 9.17611 71.6725 9.49056 71.3262 9.8916C70.9798 10.2926 70.638 10.7666 70.3008 11.3135C69.9727 11.8512 69.6719 12.4255 69.3984 13.0361C68.7969 14.4124 68.446 15.693 68.3457 16.8779ZM85.0938 10.2881C84.7201 10.4704 84.3145 10.6117 83.877 10.7119C83.4486 10.8031 83.0749 10.8486 82.7559 10.8486C82.4369 10.8486 82.1497 10.8122 81.8945 10.7393C81.6393 10.6572 81.4115 10.5433 81.2109 10.3975C80.7734 10.0785 80.5547 9.69564 80.5547 9.24902C80.5547 8.80241 80.6322 8.42415 80.7871 8.11426C80.9512 7.80436 81.1836 7.54004 81.4844 7.32129C82.1315 6.84733 82.9062 6.61035 83.8086 6.61035C84.7201 6.61035 85.3809 6.7972 85.791 7.1709C86.2103 7.5446 86.4199 7.97298 86.4199 8.45605C86.4199 8.93913 86.2923 9.31738 86.0371 9.59082C85.7819 9.86426 85.4674 10.0967 85.0938 10.2881ZM74.5664 23.7822C74.375 23.3721 74.2793 22.8708 74.2793 22.2783C74.2793 21.6768 74.4069 21.0433 74.6621 20.3779C74.9264 19.7126 75.2591 19.0518 75.6602 18.3955C76.0703 17.7301 76.526 17.0921 77.0273 16.4814C77.5286 15.8617 78.0254 15.3148 78.5176 14.8408C79.6022 13.8109 80.3997 13.2959 80.9102 13.2959C81.1289 13.2959 81.3704 13.3916 81.6348 13.583C81.9082 13.7653 82.0814 13.902 82.1543 13.9932C80.778 15.4697 79.9076 16.8962 79.543 18.2725C79.4245 18.6917 79.3652 19.1019 79.3652 19.5029C79.3652 19.8949 79.5156 20.2503 79.8164 20.5693C80.1172 20.8792 80.4909 21.0342 80.9375 21.0342C81.3841 21.0342 81.7988 20.9521 82.1816 20.7881C82.5736 20.6149 82.9564 20.3916 83.3301 20.1182C84.0684 19.5622 84.7155 18.8695 85.2715 18.04C85.6816 18.0127 85.8867 18.1813 85.8867 18.5459C85.8867 18.8467 85.6953 19.3206 85.3125 19.9678C84.9388 20.6149 84.5651 21.1755 84.1914 21.6494C83.8177 22.1143 83.3893 22.5745 82.9062 23.0303C82.4323 23.486 81.9128 23.8916 81.3477 24.2471C80.0807 25.0492 78.7773 25.4502 77.4375 25.4502C76.0247 25.4502 75.0677 24.8942 74.5664 23.7822ZM95.1152 14.0752C94.6139 14.0387 94.1263 14.0479 93.6523 14.1025C93.6523 14.1937 93.6523 14.3532 93.6523 14.5811C93.6523 14.8089 93.6842 15.1507 93.748 15.6064C93.8119 16.0622 93.8893 16.5635 93.9805 17.1104C94.2357 18.6598 94.3633 19.708 94.3633 20.2549C94.3633 20.8018 94.3268 21.2484 94.2539 21.5947C95.6302 21.2484 96.8926 20.4554 98.041 19.2158C98.3874 18.8421 98.6973 18.4502 98.9707 18.04C99.235 18.0218 99.4036 18.0719 99.4766 18.1904C99.5495 18.2998 99.5859 18.4183 99.5859 18.5459C99.5859 18.6735 99.4811 18.9834 99.2715 19.4756C99.0618 19.9678 98.6608 20.5876 98.0684 21.335C97.485 22.0824 96.7559 22.7568 95.8809 23.3584C93.903 24.7165 91.5241 25.4046 88.7441 25.4229C88.4889 25.4411 88.1198 25.4502 87.6367 25.4502C87.1536 25.4502 86.6204 25.318 86.0371 25.0537C85.4538 24.7803 84.957 24.4111 84.5469 23.9463C83.6992 22.9893 83.2754 21.7633 83.2754 20.2686C83.2754 19.6488 83.7448 18.9515 84.6836 18.1768C84.9479 17.958 85.2122 17.7666 85.4766 17.6025C86.388 16.2354 87.6823 15.0505 89.3594 14.0479C91.0456 13.0452 92.6224 12.5439 94.0898 12.5439C94.6185 12.5439 94.9831 12.6898 95.1836 12.9814C95.4023 13.2913 95.3796 13.6559 95.1152 14.0752ZM88.2383 20.4326C88.4388 20.5876 88.6621 20.665 88.9082 20.665C89.1543 20.665 89.3958 20.5693 89.6328 20.3779C89.8698 20.1865 90.084 19.9313 90.2754 19.6123C90.4759 19.2933 90.6491 18.9242 90.7949 18.5049C90.9499 18.0856 91.0866 17.6481 91.2051 17.1924C91.4056 16.4268 91.6061 15.5199 91.8066 14.4717C90.2663 14.9456 88.9036 15.6976 87.7188 16.7275C87.3633 17.0465 87.0534 17.3701 86.7891 17.6982C87.1081 19.0107 87.5911 19.9222 88.2383 20.4326ZM101.91 25.3818C99.0026 25.3818 97.5488 24.1468 97.5488 21.6768C97.5488 19.9541 98.6927 17.5661 100.98 14.5127C100.753 14.4398 100.543 14.376 100.352 14.3213C100.16 14.2666 100.005 14.221 99.8867 14.1846C99.7682 14.139 99.6953 14.0706 99.668 13.9795C99.6406 13.8883 99.6315 13.7835 99.6406 13.665C99.6771 13.3916 99.7409 13.1729 99.832 13.0088L101.896 13.3506C103.51 11.391 104.9 10.0465 106.066 9.31738C106.422 9.09863 106.673 8.98926 106.818 8.98926C106.964 8.98926 107.092 9.01204 107.201 9.05762C107.32 9.09407 107.438 9.14421 107.557 9.20801C107.812 9.34473 108.012 9.50423 108.158 9.68652C106.928 10.8896 105.775 12.2705 104.699 13.8291C106.786 14.1937 108.062 14.3896 108.527 14.417C108.281 15.3923 107.999 15.8799 107.68 15.8799C106.896 15.8799 105.606 15.6657 103.811 15.2373C102.908 16.7412 102.457 17.9899 102.457 18.9834C102.457 20.3506 103.378 21.0342 105.219 21.0342C107.279 21.0342 108.974 20.0361 110.305 18.04C110.715 18.0127 110.92 18.1813 110.92 18.5459C110.92 18.8649 110.729 19.3434 110.346 19.9814C109.963 20.6104 109.58 21.1572 109.197 21.6221C108.814 22.0869 108.372 22.5472 107.871 23.0029C107.37 23.4495 106.814 23.8506 106.203 24.2061C104.872 24.9899 103.441 25.3818 101.91 25.3818Z" fill="rgb(255,255,255)" fill-rule="nonzero" />
</svg>
