<svg viewBox="0 0 42 42" xmlns="http://www.w3.org/2000/svg" xmlns:xlink="http://www.w3.org/1999/xlink" width="42.000000" height="42.000000" fill="none" customFrame="#000000">
	<path id="Polygon 1" d="M36.4152 26.7C37.3247 28.2752 37.7794 29.0628 37.7115 29.7091C37.6522 30.2728 37.3566 30.7849 36.898 31.118C36.3723 31.5 35.4628 31.5 33.644 31.5L8.35603 31.5C6.53716 31.5 5.62773 31.5 5.102 31.118C4.64343 30.7849 4.34777 30.2728 4.28852 29.7091C4.2206 29.0628 4.67531 28.2752 5.58475 26.7L18.2287 4.8C19.1382 3.22481 19.5929 2.43722 20.1865 2.17291C20.7043 1.94236 21.2957 1.94236 21.8135 2.17291C22.4071 2.43722 22.8618 3.22481 23.7713 4.8L36.4152 26.7Z" fill="rgb(232.933,232.933,232.933)" fill-rule="evenodd" transform="matrix(6.12323e-17,1,-1,6.12323e-17,42,0)" />
</svg>
