<svg width="53" height="34" viewBox="0 0 53 34" fill="none" xmlns="http://www.w3.org/2000/svg">
<path d="M51.2203 0.00663757C51.7811 0.0690307 52.2891 0.365722 52.6197 0.823044C52.9987 1.34749 52.9996 2.24973 52.9996 4.05351V29.9451C52.9996 31.7489 52.9987 32.6511 52.6197 33.1756C52.2891 33.6329 51.7811 33.9296 51.2203 33.992C50.5772 34.0634 49.7918 33.6191 48.2222 32.7303L30.4967 22.6922V29.9451C30.4967 31.7487 30.4967 32.6511 30.1177 33.1756C29.7871 33.6331 29.2784 33.9297 28.7174 33.992C28.0742 34.0634 27.2889 33.6191 25.7193 32.7303L2.85798 19.784C1.24875 18.8727 0.444054 18.4168 0.175363 17.8191C-0.0588143 17.2979 -0.0588143 16.7008 0.175363 16.1795C0.444033 15.5818 1.24871 15.1259 2.85798 14.2146L25.7193 1.26836C27.2889 0.379524 28.0742 -0.0647545 28.7174 0.00663757C29.2784 0.0689444 29.7871 0.365559 30.1177 0.823044C30.4967 1.34751 30.4967 2.24993 30.4967 4.05351V11.3055L48.2222 1.26836C49.7918 0.379529 50.5772 -0.0647543 51.2203 0.00663757Z" fill="#E9E9E9"/>
</svg>
