<svg viewBox="0 0 34 34" xmlns="http://www.w3.org/2000/svg" xmlns:xlink="http://www.w3.org/1999/xlink" width="34.000000" height="34.000000" fill="none" customFrame="#000000">
	<rect id="gravity-ui:signal" width="34.000000" height="34.000000" x="0.000000" y="0.000000" fill="rgb(255,255,255)" fill-opacity="0" />
	<path id="Vector" d="M6.92963 4.64526C7.64575 4.06301 8.69125 4.31801 9.14813 5.11913C9.56675 5.85013 9.33938 6.77026 8.70188 7.31851C7.3043 8.5147 6.18262 9.99961 5.41407 11.671C4.64552 13.3423 4.24838 15.1604 4.25 17C4.24838 18.8396 4.64552 20.6577 5.41407 22.329C6.18262 24.0004 7.3043 25.4853 8.70188 26.6815C9.33938 27.2298 9.56675 28.1478 9.14813 28.8788C8.69125 29.682 7.64575 29.937 6.92963 29.3526C5.09517 27.8591 3.61671 25.9754 2.60179 23.8386C1.58688 21.7018 1.06103 19.3656 1.0625 17C1.06071 14.6341 1.58641 12.2975 2.60134 10.1603C3.61626 8.0231 5.09489 6.13905 6.92963 4.64526ZM24.8519 5.11913C24.4333 5.85013 24.6606 6.77026 25.2981 7.31851C26.6957 8.5147 27.8174 9.99961 28.5859 11.671C29.3545 13.3423 29.7516 15.1604 29.75 17C29.7516 18.8396 29.3545 20.6577 28.5859 22.329C27.8174 24.0004 26.6957 25.4853 25.2981 26.6815C24.6606 27.2298 24.4333 28.1478 24.8519 28.8788C25.3088 29.682 26.3543 29.937 27.0704 29.3526C28.9048 27.8591 30.3833 25.9754 31.3982 23.8386C32.4131 21.7018 32.939 19.3656 32.9375 17C32.9393 14.6341 32.4136 12.2975 31.3987 10.1603C30.3837 8.0231 28.9051 6.13905 27.0704 4.64526C26.3543 4.06301 25.3088 4.31801 24.8519 5.11913ZM10.1129 10.3658C10.7823 9.67088 11.8915 9.91951 12.3696 10.7568C12.7734 11.458 12.5758 12.3378 12.0636 12.9668C11.1334 14.1051 10.6252 15.5299 10.625 17C10.625 18.53 11.1648 19.9346 12.0636 21.0333C12.5758 21.6623 12.7713 22.542 12.3696 23.2433C11.8915 24.0805 10.7823 24.3291 10.1129 23.6343C8.39638 21.8522 7.43742 19.4743 7.4375 17C7.4375 14.4224 8.45751 12.0849 10.115 10.3658M21.6325 10.7568C21.2288 11.458 21.4243 12.3378 21.9385 12.9668C22.8353 14.0633 23.375 15.47 23.375 17C23.375 18.53 22.8353 19.9346 21.9364 21.0333C21.4221 21.6623 21.2288 22.542 21.6304 23.2433C22.1085 24.0805 23.2178 24.3291 23.8871 23.6343C25.6036 21.8522 26.5626 19.4743 26.5625 17C26.5625 14.4224 25.5425 12.0849 23.885 10.3658C23.2178 9.67088 22.1085 9.91951 21.6304 10.7568M17 20.1875C17.8454 20.1875 18.6561 19.8517 19.2539 19.2539C19.8517 18.6561 20.1875 17.8454 20.1875 17C20.1875 16.1546 19.8517 15.3439 19.2539 14.7461C18.6561 14.1483 17.8454 13.8125 17 13.8125C16.1546 13.8125 15.3439 14.1483 14.7461 14.7461C14.1483 15.3439 13.8125 16.1546 13.8125 17C13.8125 17.8454 14.1483 18.6561 14.7461 19.2539C15.3439 19.8517 16.1546 20.1875 17 20.1875Z" fill="rgb(232.933,232.933,232.933)" fill-rule="evenodd" />
</svg>
