<svg viewBox="0 0 34 34" xmlns="http://www.w3.org/2000/svg" xmlns:xlink="http://www.w3.org/1999/xlink" width="34.000000" height="34.000000" fill="none" customFrame="#000000">
	<rect id="token:rainbow" width="34.000000" height="34.000000" x="0.000000" y="0.000000" fill="rgb(255,255,255)" fill-opacity="0" />
	<path id="Vector" d="M6.1625 4.25C5.65527 4.25 5.16882 4.45149 4.81016 4.81016C4.45149 5.16882 4.25 5.65527 4.25 6.1625L4.25 8.39375C4.25 8.65725 4.46392 8.87258 4.72742 8.87258L6.1625 8.87258C16.6373 8.87258 25.1288 17.3627 25.1288 27.8375L25.1288 29.2726C25.1288 29.5361 25.3413 29.75 25.6063 29.75L27.8375 29.75C28.3447 29.75 28.8312 29.5485 29.1898 29.1898C29.5485 28.8312 29.75 28.3447 29.75 27.8375C29.75 14.8113 19.1902 4.25 6.1625 4.25Z" fill="rgb(232.933,232.933,232.933)" fill-rule="nonzero" />
	<path id="Vector" d="M4.25 10.0668C4.25 9.80333 4.46392 9.58942 4.72742 9.58942L6.1625 9.58942C16.2407 9.58942 24.4106 17.7593 24.4106 27.8375L24.4106 29.2726C24.4106 29.3992 24.3603 29.5206 24.2708 29.6102C24.1812 29.6997 24.0598 29.75 23.9332 29.75L20.2668 29.75C20.1406 29.7489 20.0198 29.6982 19.9305 29.6089C19.8412 29.5196 19.7905 29.3989 19.7894 29.2726L19.7894 27.8375C19.789 24.2235 18.3532 20.7577 15.7978 18.2022C13.2423 15.6468 9.77647 14.211 6.1625 14.2106L4.72883 14.2106C4.66602 14.2108 4.60379 14.1986 4.5457 14.1747C4.48761 14.1507 4.43481 14.1156 4.39033 14.0713C4.34585 14.0269 4.31056 13.9742 4.28648 13.9162C4.2624 13.8582 4.25 13.796 4.25 13.7332L4.25 10.0668Z" fill="rgb(232.933,232.933,232.933)" fill-rule="nonzero" />
	<path id="Vector" d="M4.25 15.4062C4.25 15.1427 4.46392 14.9274 4.72742 14.9274L6.1625 14.9274C7.85803 14.9269 9.53706 15.2604 11.1036 15.909C12.6702 16.5576 14.0936 17.5085 15.2926 18.7074C16.4915 19.9064 17.4424 21.3298 18.091 22.8964C18.7396 24.4629 19.0731 26.142 19.0726 27.8375L19.0726 29.2726C19.0726 29.3354 19.0602 29.3976 19.0361 29.4556C19.012 29.5136 18.9767 29.5663 18.9323 29.6107C18.8878 29.655 18.835 29.6902 18.7769 29.7141C18.7188 29.738 18.6566 29.7502 18.5938 29.75L16.3625 29.75C15.8553 29.75 15.3688 29.5485 15.0102 29.1898C14.6515 28.8312 14.45 28.3447 14.45 27.8375C14.45 25.6395 13.5769 23.5316 12.0226 21.9774C10.4684 20.4231 8.36048 19.55 6.1625 19.55C5.65527 19.55 5.16882 19.3485 4.81016 18.9898C4.45149 18.6312 4.25 18.1447 4.25 17.6375L4.25 15.4062Z" fill="rgb(232.933,232.933,232.933)" fill-rule="nonzero" />
</svg>
