<svg width="34" height="34" viewBox="0 0 34 34" fill="none" xmlns="http://www.w3.org/2000/svg">
<mask id="mask0_42_6" style="mask-type:luminance" maskUnits="userSpaceOnUse" x="0" y="0" width="34" height="34">
<path d="M0 0H34V34H0V0Z" fill="white"/>
</mask>
<g mask="url(#mask0_42_6)">
<path fill-rule="evenodd" clip-rule="evenodd" d="M3.1875 23.375H9.5625L15.0577 28.8703C15.478 29.2906 16.0134 29.5769 16.5964 29.6929C17.1793 29.8089 17.7836 29.7494 18.3327 29.5219C18.8818 29.2944 19.3512 28.9092 19.6813 28.4149C20.0115 27.9207 20.1876 27.3396 20.1875 26.7453V7.25475C20.1876 6.66038 20.0115 6.07931 19.6813 5.58507C19.3512 5.09082 18.8818 4.70559 18.3327 4.47812C17.7836 4.25064 17.1793 4.19114 16.5964 4.30713C16.0134 4.42312 15.478 4.7094 15.0577 5.12975L9.5625 10.625H3.1875C2.34212 10.625 1.53137 10.9608 0.933597 11.5586C0.335825 12.1564 0 12.9671 0 13.8125L0 20.1875C0 21.0329 0.335825 21.8436 0.933597 22.4414C1.53137 23.0392 2.34212 23.375 3.1875 23.375ZM30.0942 27.8439C29.5311 28.5218 28.5154 28.5175 27.8928 27.8949C27.2723 27.2723 27.2808 26.2671 27.8269 25.5786C29.7652 23.1399 30.8179 20.1152 30.8125 17C30.8174 13.8855 29.7648 10.8617 27.8269 8.4235C27.2808 7.73288 27.2722 6.72988 27.8949 6.10725C28.5154 5.48463 29.5311 5.48038 30.0942 6.15825C32.6234 9.20452 34.0054 13.0406 34 17C34 21.1225 32.5337 24.9008 30.0942 27.8439ZM25.551 23.307C25.0282 24.0146 24.0083 24.0083 23.3856 23.3856C22.763 22.7651 22.7821 21.7621 23.2581 21.0226C24.0288 19.8226 24.4382 18.4262 24.4375 17C24.4375 15.5189 24.004 14.1398 23.2581 12.9795C22.7821 12.24 22.763 11.237 23.3856 10.6144C24.0083 9.99175 25.0282 9.98538 25.5531 10.6951C26.8557 12.4589 27.625 14.6391 27.625 17C27.6281 19.2704 26.901 21.4816 25.551 23.307Z" fill="#E9E9E9"/>
</g>
</svg>
